<svg width="18" height="18" viewBox="0 0 18 18" fill="none" xmlns="http://www.w3.org/2000/svg">
<path d="M10.2937 0C10.4478 0 10.5974 0 10.7515 0C11.1519 0.0351992 11.4996 0.184796 11.7549 0.501589C12.0321 0.844781 12.1202 1.25837 12.1686 1.67636C12.283 2.71474 12.151 3.73992 11.9837 4.76509C11.9133 5.20508 11.8297 5.64068 11.7417 6.07627C11.7065 6.25666 11.7109 6.26546 11.8957 6.26546C13.0312 6.26546 14.1666 6.26106 15.3021 6.26986C15.7422 6.27426 16.1691 6.33586 16.5607 6.58225C17.3573 7.08384 17.6742 8.11782 17.2781 8.967C17.2561 9.011 17.2385 9.0506 17.2165 9.0946C17.1593 9.187 17.1813 9.25299 17.2693 9.31899C17.4409 9.45099 17.595 9.60499 17.7138 9.78538C17.9603 10.1506 18.0219 10.5554 17.9999 10.991C17.9735 11.5497 17.7138 11.9809 17.2957 12.3285C17.1901 12.4121 17.1725 12.4869 17.2341 12.6101C17.6786 13.5165 17.4233 14.4889 16.5871 15.0697C16.4727 15.1489 16.4551 15.2193 16.5123 15.3425C16.9524 16.3544 16.5079 17.4588 15.4869 17.8944C15.2977 17.9736 15.0996 17.9956 14.9016 17.9956C13.2336 18 11.5656 18.0044 9.89766 17.9956C8.41893 17.9868 6.97541 17.7272 5.5627 17.3048C5.36025 17.2432 5.16221 17.1816 4.95976 17.1156C4.81893 17.0716 4.75732 16.988 4.76612 16.8428C4.77052 16.7944 4.76612 16.7504 4.76612 16.702C4.76612 13.7013 4.77052 10.6962 4.76172 7.69543C4.76172 7.46223 4.83213 7.30384 5.01698 7.16304C5.54949 6.76265 6.06441 6.33146 6.52651 5.85187C6.97981 5.37668 7.41991 4.89269 7.72358 4.3031C7.97003 3.82352 8.12847 3.30873 8.32651 2.80714C8.55096 2.23515 8.75781 1.65876 8.98666 1.08678C9.12749 0.734784 9.35634 0.43999 9.67321 0.215595C9.85805 0.0791982 10.0693 0.0307993 10.2937 0Z" fill="#0D85D7"/>
<path d="M0 8.32466C0.00880195 8.31146 0.0176039 8.31146 0.0308068 8.31586C0.118826 8.40826 0.0924205 8.52266 0.0924205 8.63266C0.0924205 10.815 0.0924205 12.993 0.0924205 15.1753C0.0924205 15.4921 0.0924205 15.8089 0.0924205 16.1213C0.0924205 16.2093 0.105623 16.2973 0.0352078 16.3677L0.0176039 16.3633H0C0 13.6837 0 11.0042 0 8.32466Z" fill="#2F2F2F"/>
<path d="M0.03125 16.3676C0.03125 15.8001 0.035651 15.2325 0.035651 14.6649C0.035651 12.5705 0.035651 10.4762 0.040052 8.38182C0.040052 8.35982 0.035651 8.33342 0.03125 8.31142C0.0972647 8.05623 0.273304 7.90223 0.528561 7.89783C1.56279 7.89343 2.59702 7.89783 3.63565 7.89343C3.75008 7.89343 3.75448 7.94623 3.75448 8.02983C3.75008 8.56662 3.75448 9.10781 3.75448 9.64459C3.75448 11.9545 3.75448 14.2645 3.75888 16.5744C3.75888 16.7284 3.73247 16.7812 3.56083 16.7812C2.58382 16.7724 1.6068 16.7768 0.629783 16.7768C0.290908 16.7768 0.110468 16.6492 0.03125 16.3676Z" fill="#0D85D7"/>
</svg>
