<svg width="19" height="18" viewBox="0 0 19 18" fill="none" xmlns="http://www.w3.org/2000/svg">
<path d="M8.13427 18C7.97168 18 7.81373 18 7.65114 18C7.2284 17.9648 6.86141 17.8152 6.59197 17.4984C6.29931 17.1552 6.2064 16.7416 6.1553 16.3236C6.03451 15.2853 6.17388 14.2601 6.35041 13.2349C6.42473 12.7949 6.513 12.3593 6.60591 11.9237C6.64307 11.7433 6.63843 11.7345 6.44332 11.7345C5.24478 11.7345 4.04625 11.7389 2.84772 11.7301C2.38317 11.7257 1.93256 11.6641 1.51911 11.4177C0.678279 10.9162 0.343803 9.88218 0.761895 9.033C0.785123 8.989 0.803706 8.9494 0.826934 8.9054C0.887324 8.813 0.864097 8.74701 0.771187 8.68101C0.590014 8.54901 0.427423 8.39501 0.301995 8.21462C0.0418482 7.84943 -0.0231886 7.44463 3.90935e-05 7.00904C0.0279121 6.45026 0.301995 6.01907 0.743316 5.67147C0.854807 5.58787 0.873387 5.51308 0.80835 5.38988C0.339157 4.4835 0.608596 3.51112 1.49124 2.93033C1.61202 2.85114 1.6306 2.78074 1.57021 2.65754C1.10566 1.64556 1.57485 0.541186 2.65261 0.105596C2.85236 0.0263968 3.06141 0.0043993 3.27045 0.00439928C5.03109 -1.12557e-06 6.79172 -0.00440153 8.55236 0.00439882C10.1132 0.0131973 11.637 0.272793 13.1282 0.695183C13.3418 0.756783 13.5509 0.81838 13.7646 0.884378C13.9132 0.928377 13.9783 1.01198 13.969 1.15717C13.9643 1.20557 13.969 1.24957 13.969 1.29797C13.969 4.2987 13.9643 7.30384 13.9736 10.3046C13.9736 10.5378 13.8993 10.6962 13.7042 10.837C13.1421 11.2373 12.5986 11.6685 12.1108 12.1481C11.6323 12.6233 11.1678 13.1073 10.8472 13.6969C10.5871 14.1765 10.4198 14.6913 10.2108 15.1929C9.97388 15.7648 9.75554 16.3412 9.51398 16.9132C9.36532 17.2652 9.12375 17.56 8.78928 17.7844C8.59417 17.9208 8.37119 17.9692 8.13427 18Z" fill="#EA2B3D"/>
<path d="M19 9.67534C18.9907 9.68854 18.9814 9.68854 18.9675 9.68414C18.8746 9.59174 18.9024 9.47734 18.9024 9.36734C18.9024 7.18499 18.9024 5.00704 18.9024 2.82469C18.9024 2.50789 18.9024 2.1911 18.9024 1.87871C18.9024 1.79071 18.8885 1.70271 18.9628 1.63231L18.9814 1.63671L19 1.63671C19 4.31625 19 6.9958 19 9.67534Z" fill="#2F2F2F"/>
<path d="M18.9678 1.63235C18.9678 2.19994 18.9631 2.76753 18.9631 3.33512C18.9631 5.42947 18.9631 7.52382 18.9585 9.61818C18.9585 9.64018 18.9631 9.66658 18.9678 9.68858C18.8981 9.94377 18.7123 10.0978 18.4428 10.1022C17.3511 10.1066 16.2595 10.1022 15.1631 10.1066C15.0423 10.1066 15.0377 10.0538 15.0377 9.97017C15.0423 9.43338 15.0377 8.89219 15.0377 8.35541C15.0377 6.04546 15.0377 3.73551 15.0331 1.42556C15.0331 1.27156 15.0609 1.21876 15.2421 1.21876C16.2734 1.22757 17.3047 1.22316 18.336 1.22316C18.6937 1.22316 18.8842 1.35076 18.9678 1.63235Z" fill="#EA2B3D"/>
</svg>
